<?xml version="1.0" encoding="UTF-8"?>
<svg xmlns="http://www.w3.org/2000/svg"
     xmlns:xlink="http://www.w3.org/1999/xlink"
     version="1.2"
     width="101.6mm" height="101.6mm" viewBox="0 0 101.6 101.6"
     stroke="none"
     fill="#000000"
     stroke-width="0.3"
>
<g stroke-width="0.5" stroke="#BBBBBB" id="fig-8cace2acfed940c7bec480c57fe338f9-element-1">
  <path d="M48.23,13.09 L 59.13 9.66"/>
  <path d="M48.23,13.09 L 40.46 8.47"/>
  <path d="M48.23,13.09 L 34.29 22.44"/>
  <path d="M25.56,34.69 L 8.47 48.76"/>
  <path d="M25.56,34.69 L 34.29 22.44"/>
  <path d="M52.79,34.63 L 48.23 13.09"/>
  <path d="M52.79,34.63 L 25.56 34.69"/>
  <path d="M52.79,34.63 L 71.45 15.59"/>
  <path d="M52.79,34.63 L 43.03 24.56"/>
  <path d="M52.79,34.63 L 34.06 57.44"/>
  <path d="M52.79,34.63 L 69.71 68.71"/>
  <path d="M52.79,34.63 L 59.13 9.66"/>
  <path d="M52.79,34.63 L 40.46 8.47"/>
  <path d="M52.79,34.63 L 34.29 22.44"/>
  <path d="M52.79,34.63 L 77.15 26.63"/>
  <path d="M52.79,34.63 L 73.92 39.21"/>
  <path d="M52.79,34.63 L 47.9 61.72"/>
  <path d="M43.03,24.56 L 34.29 22.44"/>
  <path d="M8.47,48.76 L 22.47 63.21"/>
  <path d="M56.49,79.13 L 47.9 61.72"/>
  <path d="M16.26,74.02 L 22.47 63.21"/>
  <path d="M34.06,57.44 L 22.47 63.21"/>
  <path d="M34.06,57.44 L 16.26 74.02"/>
  <path d="M34.06,57.44 L 47.9 61.72"/>
  <path d="M69.71,68.71 L 74.94 93.13"/>
  <path d="M69.71,68.71 L 87.52 86.09"/>
  <path d="M69.71,68.71 L 56.49 79.13"/>
  <path d="M69.71,68.71 L 93.13 72.96"/>
  <path d="M69.71,68.71 L 47.9 61.72"/>
  <path d="M47.9,61.72 L 22.47 63.21"/>
</g>
<g stroke="#BBBBBB" fill="#AAAAFF" id="fig-8cace2acfed940c7bec480c57fe338f9-element-2">
  <circle cx="48.23" cy="13.09" r="2.37"/>
  <circle cx="74.94" cy="93.13" r="2.37"/>
  <circle cx="25.56" cy="34.69" r="2.37"/>
  <circle cx="52.79" cy="34.63" r="2.37"/>
  <circle cx="87.52" cy="86.09" r="2.37"/>
  <circle cx="22.47" cy="63.21" r="2.37"/>
  <circle cx="71.45" cy="15.59" r="2.37"/>
  <circle cx="43.03" cy="24.56" r="2.37"/>
  <circle cx="8.47" cy="48.76" r="2.37"/>
  <circle cx="56.49" cy="79.13" r="2.37"/>
  <circle cx="16.26" cy="74.02" r="2.37"/>
  <circle cx="34.06" cy="57.44" r="2.37"/>
  <circle cx="69.71" cy="68.71" r="2.37"/>
  <circle cx="59.13" cy="9.66" r="2.37"/>
  <circle cx="40.46" cy="8.47" r="2.37"/>
  <circle cx="93.13" cy="72.96" r="2.37"/>
  <circle cx="34.29" cy="22.44" r="2.37"/>
  <circle cx="77.15" cy="26.63" r="2.37"/>
  <circle cx="73.92" cy="39.21" r="2.37"/>
  <circle cx="47.9" cy="61.72" r="2.37"/>
</g>
<g font-size="4" stroke="none" fill="#000000" id="fig-8cace2acfed940c7bec480c57fe338f9-element-3">
  <text x="48.23" y="13.09" text-anchor="middle" dy="0.35em">Compose</text>
  <text x="74.94" y="93.13" text-anchor="middle" dy="0.35em">Reexport</text>
  <text x="25.56" y="34.69" text-anchor="middle" dy="0.35em">Loess</text>
  <text x="52.79" y="34.63" text-anchor="middle" dy="0.35em">Gadfly</text>
  <text x="87.52" y="86.09" text-anchor="middle" dy="0.35em">GZip</text>
  <text x="22.47" y="63.21" text-anchor="middle" dy="0.35em">ArrayViews</text>
  <text x="71.45" y="15.59" text-anchor="middle" dy="0.35em">Datetime</text>
  <text x="43.03" y="24.56" text-anchor="middle" dy="0.35em">Codecs</text>
  <text x="8.47" y="48.76" text-anchor="middle" dy="0.35em">Distance</text>
  <text x="56.49" y="79.13" text-anchor="middle" dy="0.35em">DataArrays</text>
  <text x="16.26" y="74.02" text-anchor="middle" dy="0.35em">PDMats</text>
  <text x="34.06" y="57.44" text-anchor="middle" dy="0.35em">Distributions</text>
  <text x="69.71" y="68.71" text-anchor="middle" dy="0.35em">DataFrames</text>
  <text x="59.13" y="9.66" text-anchor="middle" dy="0.35em">JSON</text>
  <text x="40.46" y="8.47" text-anchor="middle" dy="0.35em">Color</text>
  <text x="93.13" y="72.96" text-anchor="middle" dy="0.35em">SortingAlgorithms</text>
  <text x="34.29" y="22.44" text-anchor="middle" dy="0.35em">Iterators</text>
  <text x="77.15" y="26.63" text-anchor="middle" dy="0.35em">DataStructures</text>
  <text x="73.92" y="39.21" text-anchor="middle" dy="0.35em">Hexagons</text>
  <text x="47.9" y="61.72" text-anchor="middle" dy="0.35em">StatsBase</text>
</g>
</svg>
