<?xml version="1.0" encoding="UTF-8"?>
<svg xmlns="http://www.w3.org/2000/svg"
     xmlns:xlink="http://www.w3.org/1999/xlink"
     version="1.2"
     width="101.6mm" height="101.6mm" viewBox="0 0 101.6 101.6"
     stroke="none"
     fill="#000000"
     stroke-width="0.3"
>
<g stroke-width="0.5" stroke="#000000" fill="#FF0000" id="fig-bf02c37b0f794155bdbd056c8040e944-element-1">
  <path d="M74.11,70.38 L 78.78 77.36"/>
  <path d="M74.11,70.38 L 66.7 78.9"/>
  <path d="M74.11,70.38 L 74.85 57.41"/>
  <path d="M60.83,50.07 L 40.74 50.78"/>
  <path d="M60.83,50.07 L 74.85 57.41"/>
  <path d="M59.18,60.48 L 74.11 70.38"/>
  <path d="M59.18,60.48 L 60.83 50.07"/>
  <path d="M59.18,60.48 L 43.01 76.05"/>
  <path d="M59.18,60.48 L 82.28 50.82"/>
  <path d="M59.18,60.48 L 30.62 57.27"/>
  <path d="M59.18,60.48 L 41.17 28.26"/>
  <path d="M59.18,60.48 L 78.78 77.36"/>
  <path d="M59.18,60.48 L 66.7 78.9"/>
  <path d="M59.18,60.48 L 74.85 57.41"/>
  <path d="M59.18,60.48 L 53.69 82.26"/>
  <path d="M59.18,60.48 L 87.72 64.25"/>
  <path d="M59.18,60.48 L 40.31 43.2"/>
  <path d="M82.28,50.82 L 74.85 57.41"/>
  <path d="M40.74,50.78 L 21.6 50.15"/>
  <path d="M50.37,26.41 L 40.31 43.2"/>
  <path d="M8.47,58.49 L 21.6 50.15"/>
  <path d="M30.62,57.27 L 21.6 50.15"/>
  <path d="M30.62,57.27 L 8.47 58.49"/>
  <path d="M30.62,57.27 L 40.31 43.2"/>
  <path d="M41.17,28.26 L 48.09 8.47"/>
  <path d="M41.17,28.26 L 20.88 16.29"/>
  <path d="M41.17,28.26 L 50.37 26.41"/>
  <path d="M41.17,28.26 L 32.6 8.71"/>
  <path d="M41.17,28.26 L 40.31 43.2"/>
  <path d="M40.31,43.2 L 21.6 50.15"/>
  <circle cx="74.11" cy="70.38" r="2.37"/>
  <circle cx="48.09" cy="8.47" r="2.37"/>
  <circle cx="60.83" cy="50.07" r="2.37"/>
  <circle cx="59.18" cy="60.48" r="2.37"/>
  <circle cx="20.88" cy="16.29" r="2.37"/>
  <circle cx="21.6" cy="50.15" r="2.37"/>
  <circle cx="43.01" cy="76.05" r="2.37"/>
  <circle cx="82.28" cy="50.82" r="2.37"/>
  <circle cx="40.74" cy="50.78" r="2.37"/>
  <circle cx="50.37" cy="26.41" r="2.37"/>
  <circle cx="8.47" cy="58.49" r="2.37"/>
  <circle cx="30.62" cy="57.27" r="2.37"/>
  <circle cx="41.17" cy="28.26" r="2.37"/>
  <circle cx="78.78" cy="77.36" r="2.37"/>
  <circle cx="66.7" cy="78.9" r="2.37"/>
  <circle cx="32.6" cy="8.71" r="2.37"/>
  <circle cx="74.85" cy="57.41" r="2.37"/>
  <circle cx="53.69" cy="82.26" r="2.37"/>
  <circle cx="87.72" cy="64.25" r="2.37"/>
  <circle cx="40.31" cy="43.2" r="2.37"/>
</g>
</svg>
